<svg width="64" height="64" viewBox="0 0 64 64" fill="none" xmlns="http://www.w3.org/2000/svg">
<path d="M2 62H8M8 62H38M8 62V13.2948C8 9.34149 8 7.36337 8.65397 5.85341C9.22919 4.52519 10.1464 3.44611 11.2754 2.76938C12.5589 2 14.2403 2 17.6006 2H28.4006C31.7609 2 33.4388 2 34.7222 2.76938C35.8511 3.44611 36.7715 4.52519 37.3466 5.85341C38 7.36188 38 9.33761 38 13.2832V33.7647M38 62H56M38 62V33.7647M38 33.7647C38 30.4756 38 28.832 38.4566 27.5349C39.0656 25.8052 40.2329 24.4302 41.7032 23.7138C42.8057 23.1765 44.2037 23.1765 46.9991 23.1765C49.7948 23.1765 51.1943 23.1765 52.2968 23.7138C53.7671 24.4302 54.9341 25.8052 55.5431 27.5349C55.9997 28.832 56 30.4756 56 33.7647V62M56 62H62M17 26.7059H29M17 16.1176H29" stroke="white" stroke-width="4" stroke-linecap="round" stroke-linejoin="round"/>
</svg>
