<svg width="38" height="39" viewBox="0 0 38 39" fill="none" xmlns="http://www.w3.org/2000/svg">
<rect y="0.5" width="38" height="38" rx="19" fill="#FF6B00"/>
<path d="M13.62 18.29C15.06 21.12 17.38 23.43 20.21 24.88L22.41 22.68C22.68 22.41 23.08 22.32 23.43 22.44C24.55 22.81 25.76 23.01 27 23.01C27.55 23.01 28 23.46 28 24.01V27.5C28 28.05 27.55 28.5 27 28.5C17.61 28.5 10 20.89 10 11.5C10 10.95 10.45 10.5 11 10.5H14.5C15.05 10.5 15.5 10.95 15.5 11.5C15.5 12.75 15.7 13.95 16.07 15.07C16.18 15.42 16.1 15.81 15.82 16.09L13.62 18.29Z" fill="white"/>
</svg>
