<svg width="60" height="60" viewBox="0 0 60 60" fill="none" xmlns="http://www.w3.org/2000/svg">
<path fill-rule="evenodd" clip-rule="evenodd" d="M5.83257 20.688C5.73805 21.2551 5.66725 21.7757 5.61415 22.2385C5.17939 22.372 4.7109 22.5499 4.23488 22.7879C3.22953 23.2906 2.14121 24.0874 1.31032 25.3339C0.468055 26.5972 0 28.1591 0 30C0 31.8409 0.468055 33.4028 1.31032 34.6661C2.14121 35.9125 3.22953 36.7094 4.23488 37.212C4.7109 37.4501 5.17939 37.6279 5.61415 37.7615C5.66722 38.2244 5.73805 38.745 5.83257 39.312C6.20324 41.5361 6.94969 44.5432 8.46974 47.5833C9.99515 50.634 12.3261 53.7679 15.8735 56.133C19.4381 58.5093 24.0682 60 30 60C35.9318 60 40.5619 58.5093 44.1265 56.133C47.6738 53.7679 50.0048 50.634 51.5302 47.5833C53.0504 44.5432 53.7968 41.5361 54.1675 39.312C54.2618 38.745 54.3327 38.2244 54.3859 37.7615C54.8206 37.6279 55.2892 37.4501 55.7651 37.212C56.7704 36.7094 57.8588 35.9125 58.6898 34.6661C59.532 33.4028 60 31.8409 60 30C60 28.1591 59.532 26.5972 58.6898 25.3339C57.8588 24.0874 56.7704 23.2906 55.7651 22.7879C55.2892 22.5499 54.8206 22.372 54.3859 22.2385C54.3327 21.7757 54.2618 21.2551 54.1675 20.688C53.7968 18.4639 53.0504 15.4568 51.5302 12.4167C50.0048 9.36589 47.6738 6.23212 44.1265 3.86714C40.5619 1.49078 35.9318 0 30 0C24.0682 0 19.4381 1.49078 15.8735 3.86714C12.3261 6.23212 9.99515 9.36589 8.46976 12.4167C6.94969 15.4568 6.20324 18.4639 5.83257 20.688ZM48.825 38.1818H11.1751C11.472 40.0691 12.0901 42.6273 13.3484 45.144C14.5503 47.5478 16.3103 49.8685 18.8992 51.5943C21.471 53.3089 25.0227 54.5455 30 54.5455C34.9773 54.5455 38.529 53.3089 41.1008 51.5943C43.6898 49.8685 45.4497 47.5478 46.6516 45.144C47.9097 42.6273 48.528 40.0691 48.825 38.1818ZM48.825 21.8182H46.3636C44.8574 21.8182 43.6364 23.0392 43.6364 24.5455C43.6364 26.0517 44.8574 27.2727 46.3636 27.2727H51.8182C52.6593 27.3055 53.6615 27.6248 54.1511 28.3593C54.3316 28.6301 54.5455 29.1136 54.5455 30C54.5455 30.8864 54.3316 31.3699 54.1511 31.6407C53.6615 32.3752 52.6593 32.6945 51.8182 32.7273H8.18182C7.34059 32.6945 6.33856 32.3752 5.84877 31.6407C5.66831 31.3699 5.45455 30.8864 5.45455 30C5.45455 29.1136 5.66831 28.6301 5.84877 28.3593C6.33856 27.6248 7.34059 27.3055 8.18182 27.2727H13.6364C15.1426 27.2727 16.3636 26.0517 16.3636 24.5455C16.3636 23.0392 15.1426 21.8182 13.6364 21.8182H11.1751C11.472 19.931 12.0902 17.3726 13.3484 14.856C14.5503 12.4523 16.3103 10.1315 18.8992 8.40559C19.7575 7.83338 20.725 7.31441 21.8182 6.87687V13.6364C21.8182 15.1426 23.0392 16.3636 24.5455 16.3636C26.0517 16.3636 27.2727 15.1426 27.2727 13.6364V5.58742C28.1307 5.50066 29.0389 5.45455 30 5.45455C30.9611 5.45455 31.8693 5.50066 32.7273 5.58742V13.6364C32.7273 15.1426 33.9483 16.3636 35.4545 16.3636C36.9608 16.3636 38.1818 15.1426 38.1818 13.6364V6.87687C39.2749 7.31441 40.2425 7.83338 41.1008 8.40559C43.6898 10.1315 45.4497 12.4523 46.6516 14.856C47.9097 17.3726 48.528 19.931 48.825 21.8182Z" fill="white"/>
</svg>
