<svg width="86" height="86" viewBox="0 0 86 86" fill="none" xmlns="http://www.w3.org/2000/svg">
<path d="M42.9985 54.7779C49.5723 54.7779 54.9015 49.4488 54.9015 42.875C54.9015 36.3012 49.5723 30.972 42.9985 30.972C36.4247 30.972 31.0956 36.3012 31.0956 42.875C31.0956 49.4488 36.4247 54.7779 42.9985 54.7779Z" stroke="white" stroke-width="5"/>
<path d="M50.4676 54.1679C49.9213 53.6074 49.6177 52.8542 49.6227 52.0714C49.6278 51.2887 49.9409 50.5395 50.4944 49.986C51.0479 49.4325 51.7971 49.1193 52.5799 49.1143C53.3626 49.1093 54.1158 49.4128 54.6763 49.9592L64.7214 60.0048C65.272 60.5644 65.5791 61.3189 65.5759 62.1039C65.5727 62.8889 65.2594 63.6408 64.7043 64.1959C64.1492 64.751 63.3973 65.0643 62.6123 65.0675C61.8273 65.0707 61.0728 64.7635 60.5132 64.213L50.4676 54.1679Z" fill="white"/>
<path fill-rule="evenodd" clip-rule="evenodd" d="M44.2851 7.35311C43.621 7.10572 42.8905 7.10344 42.2249 7.34667L15.1953 17.2281C14.6222 17.4376 14.1275 17.8181 13.7779 18.3182C13.4284 18.8183 13.241 19.4137 13.2412 20.0238V42.751C13.2412 42.876 13.2491 43.0014 13.265 43.1254L16.2169 42.751C15.2329 42.8752 14.2489 42.9996 13.265 43.1254V43.1279L13.266 43.1329L13.268 43.1487L13.2749 43.2048C13.3167 43.5218 13.3613 43.8384 13.4088 44.1545C13.5006 44.7809 13.637 45.6538 13.814 46.6427C14.1602 48.576 14.6894 51.1187 15.3927 53.1239C16.823 57.1992 18.0659 59.4691 20.4569 62.9607C23.1529 66.8966 25.0579 69.2593 29.0453 72.2936C30.8273 73.6495 32.8999 74.9955 35.8062 76.3287C37.0049 76.8782 38.5979 77.4728 39.8269 77.9108C40.5559 78.1701 41.2875 78.422 42.0215 78.6666L42.0567 78.6785L42.0667 78.6815L42.0696 78.6825H42.0706C42.6668 78.8783 43.3096 78.8806 43.9072 78.6889L43.9096 78.6884L43.9136 78.6869L43.927 78.682L43.9756 78.6671L44.1517 78.6091C45.0764 78.3023 45.9954 77.9786 46.9082 77.638C48.5508 77.025 50.7062 76.1571 52.3721 75.2366C54.2042 74.2248 55.0761 73.6753 56.932 72.2866C57.5479 71.8254 58.1718 71.2997 58.7868 70.7412L54.5727 66.5276C54.1846 66.8757 53.782 67.2073 53.366 67.5215C51.7368 68.7406 51.0955 69.1428 49.4946 70.0271C48.2324 70.7244 46.4202 71.4678 44.8277 72.0625C44.1194 72.3263 43.4836 72.551 43.0015 72.7166C42.6089 72.5819 42.2171 72.4447 41.8261 72.305C40.615 71.8735 39.2323 71.3522 38.287 70.9188C35.827 69.791 34.1279 68.682 32.649 67.5572C29.3375 65.0377 27.8481 63.2201 25.3668 59.5971C23.2179 56.4597 22.2369 54.6539 21.0079 51.153C20.4708 49.6219 20.008 47.471 19.6723 45.5943C19.4951 44.6019 19.3373 43.6062 19.1991 42.6076L19.1927 42.5551V22.1033L43.2366 13.313L66.804 22.0899V42.5283L66.7985 42.5625C66.6361 43.5972 66.4544 44.6288 66.2534 45.6568C65.8711 47.6009 65.3478 49.8689 64.7472 51.5388C64.6892 51.7015 64.6267 51.8686 64.5598 52.0397L69.0893 56.5698C69.562 55.5442 70.0073 54.5007 70.3485 53.5519C71.1064 51.4416 71.6985 48.8116 72.0933 46.8039C72.3104 45.6968 72.5062 44.5857 72.6805 43.4711L72.7123 43.2598L72.7212 43.2023L72.7237 43.1859L72.7242 43.181V43.1795L72.7247 43.179C72.7451 43.0374 72.7553 42.894 72.7554 42.751V20.0233C72.7554 19.4164 72.5699 18.8239 72.2236 18.3255C71.8774 17.827 71.387 17.4464 70.8182 17.2345L44.2851 7.35311Z" fill="white"/>
</svg>
