<svg width="86" height="86" viewBox="0 0 86 86" fill="none" xmlns="http://www.w3.org/2000/svg">
<path d="M68.0475 25.155C68.2424 25.6601 68.5853 26.0945 69.0313 26.4014C69.4772 26.7083 70.0055 26.8734 70.5469 26.875C70.8782 26.8724 71.2062 26.8087 71.5144 26.6869C72.176 26.4287 72.7085 25.9191 72.9955 25.2694C73.2826 24.6198 73.3008 23.883 73.0462 23.22C71.8029 20.0356 70.0611 17.0692 67.8862 14.4319C67.4192 13.9324 66.7793 13.6298 66.0969 13.5856C65.4145 13.5414 64.741 13.759 64.2134 14.1941C63.6859 14.6291 63.344 15.249 63.2574 15.9273C63.1709 16.6056 63.3461 17.2914 63.7475 17.845C65.5587 20.0387 67.0101 22.5061 68.0475 25.155ZM59.125 13.4375C59.8378 13.4375 60.5213 13.1543 61.0254 12.6503C61.5294 12.1463 61.8125 11.4627 61.8125 10.75C61.8006 10.3886 61.716 10.0334 61.5636 9.70551C61.4112 9.37765 61.1942 9.0839 60.9256 8.84185C60.6966 8.59336 60.418 8.39563 60.1079 8.26139C59.7978 8.12715 59.4629 8.05939 59.125 8.06248C58.4122 8.06248 57.7287 8.34563 57.2246 8.84963C56.7206 9.35363 56.4375 10.0372 56.4375 10.75C56.4479 11.1378 56.5422 11.5188 56.7139 11.8667C56.8855 12.2147 57.1305 12.5213 57.4319 12.7656C57.9008 13.1798 58.4996 13.4174 59.125 13.4375ZM24.1875 34.9375C24.1875 38.6582 25.2908 42.2954 27.358 45.3891C29.4251 48.4828 32.3632 50.8941 35.8008 52.318C39.2383 53.7418 43.0209 54.1144 46.6701 53.3885C50.3194 52.6626 53.6715 50.8709 56.3024 48.2399C58.9334 45.6089 60.7251 42.2569 61.451 38.6076C62.1769 34.9583 61.8044 31.1758 60.3805 27.7382C58.9566 24.3007 56.5454 21.3626 53.4517 19.2955C50.358 17.2283 46.7208 16.125 43 16.125C38.0106 16.125 33.2256 18.107 29.6976 21.635C26.1695 25.1631 24.1875 29.9481 24.1875 34.9375ZM56.4375 34.9375C56.4375 37.5952 55.6494 40.1932 54.1729 42.403C52.6963 44.6127 50.5977 46.3351 48.1423 47.3521C45.6869 48.3692 42.9851 48.6353 40.3785 48.1168C37.7719 47.5983 35.3775 46.3185 33.4983 44.4392C31.619 42.56 30.3392 40.1656 29.8207 37.559C29.3022 34.9524 29.5683 32.2505 30.5854 29.7952C31.6024 27.3398 33.3247 25.2411 35.5345 23.7646C37.7443 22.2881 40.3423 21.5 43 21.5C46.5638 21.5 49.9817 22.9157 52.5017 25.4357C55.0218 27.9557 56.4375 31.3736 56.4375 34.9375Z" fill="white"/>
<path d="M82.5331 70.6544L67.6175 55.7387C72.5508 49.9312 75.2564 42.5575 75.25 34.9375C75.25 34.2247 74.9669 33.5412 74.4629 33.0371C73.9589 32.5331 73.2753 32.25 72.5625 32.25C71.8497 32.25 71.1662 32.5331 70.6622 33.0371C70.1581 33.5412 69.875 34.2247 69.875 34.9375C69.8716 39.3073 68.8027 43.6104 66.7609 47.4739C64.7191 51.3374 61.766 54.6448 58.1575 57.1094L55.47 58.7219C51.6299 60.746 47.3544 61.8039 43.0134 61.8039C38.6725 61.8039 34.397 60.746 30.5569 58.7219L27.8694 57.1094C22.6344 53.5028 18.8473 48.1572 17.1811 42.0223C15.5148 35.8875 16.0772 29.3605 18.7684 23.6011C21.4595 17.8417 26.1052 13.2228 31.88 10.5649C37.6548 7.90693 44.1848 7.38215 50.31 9.08375C50.6575 9.20997 51.0273 9.26313 51.3963 9.2399C51.7653 9.21668 52.1255 9.11757 52.4545 8.94877C52.7834 8.77997 53.074 8.54512 53.308 8.2589C53.5421 7.97268 53.7145 7.64125 53.8146 7.28534C53.9147 6.92943 53.9403 6.55669 53.8898 6.19044C53.8393 5.82418 53.7137 5.47229 53.521 5.15678C53.3282 4.84126 53.0725 4.56891 52.7697 4.35675C52.4669 4.14458 52.1236 3.99718 51.7613 3.92375C45.1255 2.0729 38.0714 2.39561 31.6323 4.84461C25.1932 7.29361 19.7076 11.7402 15.9789 17.533C12.2502 23.3258 10.4745 30.1603 10.9119 37.0355C11.3493 43.9107 13.9767 50.4651 18.4094 55.7387L3.46688 70.6544C3.08786 71.0303 2.82938 71.5105 2.72438 72.0339C2.61938 72.5573 2.67262 73.1001 2.87732 73.5931C3.08202 74.0861 3.4289 74.507 3.87373 74.8021C4.31857 75.0972 4.8412 75.2531 5.375 75.25H14.19L16.2594 81.485C16.4033 81.9214 16.6568 82.3136 16.9956 82.6242C17.3344 82.9347 17.7471 83.1532 18.1944 83.2587L18.8125 83.3125C19.1662 83.3145 19.5168 83.2467 19.8443 83.113C20.1717 82.9793 20.4695 82.7822 20.7206 82.5331L36.6844 66.5694C40.853 67.4084 45.147 67.4084 49.3156 66.5694L65.2794 82.5331C65.5305 82.7822 65.8283 82.9793 66.1558 83.113C66.4832 83.2467 66.8338 83.3145 67.1875 83.3125H67.8056C68.2529 83.2069 68.6656 82.9885 69.0044 82.6779C69.3432 82.3674 69.5967 81.9752 69.7406 81.5387L71.81 75.25H80.625C81.1588 75.2531 81.6814 75.0972 82.1263 74.8021C82.5711 74.507 82.918 74.0861 83.1227 73.5931C83.3274 73.1001 83.3806 72.5573 83.2756 72.0339C83.1706 71.5105 82.9121 71.0303 82.5331 70.6544ZM30.6106 65.0375L19.8606 75.7875L18.5438 71.8637C18.399 71.3211 18.0878 70.8374 17.6539 70.4807C17.2201 70.124 16.6854 69.9122 16.125 69.875H11.8519L21.9031 59.8237L24.8863 61.5975C25.873 62.2627 26.8958 62.8728 27.95 63.425L30.6106 65.0375ZM69.875 69.875C69.3116 69.8735 68.762 70.0492 68.3038 70.3771C67.8457 70.7051 67.5022 71.1687 67.3219 71.7025L66.005 75.6262L55.255 64.8762L57.9425 63.2906C58.9967 62.7384 60.0195 62.1283 61.0063 61.4631L63.9894 59.6894L74.1481 69.875H69.875Z" fill="white"/>
</svg>
