<svg width="78" height="78" viewBox="0 0 78 78" fill="none" xmlns="http://www.w3.org/2000/svg">
<path d="M7 41.1176H3V24.1765C3 19.4983 6.58172 15.7059 11 15.7059H27M7 41.1176V66.5294C7 71.2077 10.5817 75 15 75H63C67.4184 75 71 71.2077 71 66.5294V41.1176M7 41.1176H31M27 15.7059V11.4706C27 6.79241 30.5817 3 35 3H43C47.4184 3 51 6.79241 51 11.4706V15.7059M27 15.7059H51M71 41.1176H75V24.1765C75 19.4983 71.4184 15.7059 67 15.7059H51M71 41.1176H47M31 41.1176V32.6471H47V41.1176M31 41.1176V49.5882H47V41.1176" stroke="white" stroke-width="5" stroke-linecap="round" stroke-linejoin="round"/>
</svg>
